<svg xmlns="http://www.w3.org/2000/svg" xmlns:xlink="http://www.w3.org/1999/xlink" xmlns:inkscape="http://www.inkscape.org/namespaces/inkscape" version="1.1" width="576" height="216" viewBox="0 0 576 216">
<defs>
<clipPath id="clip_1">
<path transform="matrix(1,0,0,-1,0,216)" d="M0 216H576V0H0Z"/>
</clipPath>
</defs>
<g inkscape:groupmode="layer" inkscape:label="Layer 1" fill="#1f3f4b">
<g clip-path="url(#clip_1)">
<path transform="matrix(1,0,0,-1,257.3433,132.7803)" d="M0 0C-2.03 14.509-4.021 28.777-6.033 43.179-6.505 42.496-6.579 41.834-6.658 41.157-6.852 39.524-7.077 37.894-7.303 36.266-7.643 33.776-7.989 31.291-8.334 28.805-8.549 27.265-8.764 25.728-8.975 24.187-9.317 21.7-9.654 19.211-10 16.724-10.169 15.505-10.362 14.282-10.532 13.064-11.079 9.176-11.619 5.282-12.174 1.397-12.234 .954-12.362 .51-12.452 .113-14.488-.231-27.949-.146-29.123 .227-29.316 1.82-29.54 3.449-29.708 5.077-30.202 9.896-30.67 14.717-31.155 19.532-31.52 23.17-31.877 26.807-32.271 30.437-32.763 34.935-33.301 39.423-33.791 43.918-34.03 46.098-34.186 48.289-34.416 50.47-34.743 53.56-35.114 56.643-35.44 59.731-35.657 61.777-35.822 63.826-36.038 65.87-36.374 69.051-36.756 72.227-37.081 75.407-37.333 77.856-37.533 80.309-37.762 82.814-37.493 82.901-37.289 83.024-37.083 83.024-32.692 83.033-28.3 83.03-23.834 83.03-23.72 82.727-23.548 82.448-23.516 82.154-23.374 80.838-23.279 79.515-23.154 78.196-22.911 75.694-22.648 73.198-22.419 70.694-22.205 68.373-22.043 66.047-21.832 63.726-21.485 59.948-21.105 56.177-20.759 52.4-20.549 50.078-20.383 47.752-20.178 45.43-19.899 42.243-19.604 39.061-19.311 35.874-19.296 35.715-19.237 35.56-19.088 35.392-18.527 36.892-18.482 38.478-18.241 40.021-17.998 41.6-17.852 43.195-17.65 44.781-17.449 46.366-17.233 47.949-17.025 49.533-16.819 51.118-16.618 52.704-16.405 54.288-16.196 55.873-15.967 57.455-15.757 59.041-15.548 60.626-15.36 62.215-15.158 63.801-14.956 65.386-14.753 66.97-14.546 68.554-14.337 70.14-14.124 71.723-13.913 73.308-13.704 74.894-13.49 76.479-13.283 78.064-13.081 79.643-12.883 81.222-12.688 82.741-11.61 83.107-3.47 83.224 .077 82.961 .593 82.056 .539 80.981 .695 79.968 .995 78.029 1.219 76.077 1.462 74.13 1.781 71.589 2.085 69.051 2.405 66.515 2.58 65.106 2.775 63.705 2.961 62.298 3.215 60.398 3.467 58.499 3.727 56.6 4.072 54.064 4.443 51.532 4.761 48.997 5.101 46.323 5.382 43.644 5.723 40.97 5.979 38.933 6.297 36.903 6.617 34.677 6.774 35.061 6.927 35.276 6.948 35.505 7.084 36.919 7.188 38.332 7.316 39.742 7.558 42.333 7.818 44.927 8.047 47.519 8.269 49.933 8.444 52.35 8.668 54.761 9.01 58.491 9.39 62.217 9.729 65.948 9.948 68.358 10.113 70.777 10.324 73.191 10.583 76.148 10.857 79.106 11.133 82.062 11.161 82.324 11.249 82.58 11.301 82.806 12.352 83.086 23.827 83.14 25.443 82.86 22.552 55.278 19.659 27.686 16.757-.035 11.111-.095 5.599-.135 0 0" fill="#1f3f4b"/>
<path transform="matrix(1,0,0,-1,330.7139,93.3047)" d="M0 0V-39.28C-1.056-39.623-11.763-39.706-13.976-39.419-14.006-39.382-14.047-39.362-14.074-39.319-14.104-39.285-14.121-39.239-14.121-39.192-14.142-11.968-14.158 15.258-14.167 42.482-14.167 42.71-14.154 42.938-14.12 43.164-14.108 43.246-14.044 43.322-13.952 43.48H-.618C3.444 30.29 7.5 17.098 11.557 3.902 11.615 3.898 11.675 3.891 11.735 3.884 11.79 4.213 11.895 4.541 11.895 4.868 11.908 6.975 11.9 9.08 11.9 11.184 11.9 21.434 11.899 31.685 11.902 41.936 11.903 42.425 11.938 42.916 11.951 43.377 13.348 43.645 24.974 43.618 25.988 43.368 26.016 43.334 26.055 43.305 26.077 43.266 26.104 43.229 26.125 43.182 26.125 43.14 26.15 15.962 26.168-11.221 26.187-38.399 26.187-38.626 26.178-38.853 26.157-39.079 26.146-39.165 26.073-39.243 25.965-39.44 21.615-39.673 17.191-39.532 12.637-39.517 11.613-36.935 10.973-34.24 10.109-31.615 9.236-28.974 8.468-26.296 7.648-23.635 6.849-21.016 6.045-18.402 5.234-15.785 4.418-13.128 3.607-10.466 2.764-7.817 1.926-5.189 1.279-2.494 0 0" fill="#1f3f4b"/>
<path transform="matrix(1,0,0,-1,522.1055,93.3047)" d="M0 0V-39.28C-1.051-39.623-11.758-39.706-13.971-39.419-14.002-39.382-14.045-39.362-14.069-39.319-14.097-39.285-14.117-39.239-14.117-39.192-14.138-11.968-14.153 15.258-14.165 42.482-14.165 42.71-14.149 42.938-14.116 43.164-14.106 43.246-14.038 43.322-13.947 43.48H-.613C3.452 30.29 7.505 17.098 11.563 3.902 11.621 3.898 11.681 3.891 11.741 3.884 11.796 4.213 11.899 4.541 11.899 4.868 11.913 6.975 11.905 9.08 11.905 11.184 11.905 21.434 11.905 31.685 11.907 41.936 11.909 42.425 11.942 42.916 11.958 43.377 13.354 43.645 24.979 43.618 25.993 43.368 26.022 43.334 26.06 43.305 26.081 43.266 26.11 43.229 26.132 43.182 26.132 43.14 26.157 15.962 26.173-11.221 26.19-38.399 26.19-38.626 26.183-38.853 26.163-39.079 26.153-39.165 26.077-39.243 25.97-39.44 21.62-39.673 17.198-39.532 12.642-39.517 11.618-36.935 10.978-34.24 10.114-31.615 9.242-28.974 8.473-26.296 7.655-23.635 6.853-21.016 6.05-18.402 5.239-15.785 4.418-13.128 3.613-10.466 2.767-7.817 1.928-5.189 1.284-2.494 0 0" fill="#1f3f4b"/>
<path transform="matrix(1,0,0,-1,406.3633,76.9404)" d="M0 0C-1.353-.257-12.71-.247-13.903 .003-13.948 .273-14.038 .572-14.042 .876-14.06 2.385-14.021 3.897-14.061 5.407-14.093 6.731-14.204 8.051-14.292 9.373-14.304 9.556-14.347 9.737-14.377 9.913-14.891 12.61-16.09 13.856-19.162 14.04-20.194 14.101-21.254 13.957-22.28 13.782-24.865 13.345-26.023 11.241-26.312 9.332-26.88 5.561-25.919 2.223-23.563-.796-21.72-3.162-19.53-5.154-17.303-7.118-14.452-9.627-11.543-12.076-8.832-14.728-6.208-17.285-3.938-20.167-2.365-23.526-.858-26.752 .022-30.116 .074-33.705 .118-37.02-.11-40.282-1.098-43.462-2.433-47.782-4.849-51.273-8.927-53.434-10.96-54.51-13.132-55.16-15.413-55.514-17.78-55.891-20.154-55.87-22.528-55.795-25.896-55.69-29.154-55.078-32.184-53.511-35.265-51.909-37.474-49.496-38.851-46.324-39.957-43.774-40.532-41.101-40.646-38.341-40.759-35.464-40.757-32.581-40.794-29.7-40.799-29.392-40.738-29.081-40.707-28.795-39.626-28.525-27.979-28.497-26.641-28.761-26.608-29.087-26.551-29.436-26.55-29.789-26.542-31.847-26.592-33.907-26.531-35.967-26.497-37.006-26.429-38.088-26.122-39.073-25.477-41.12-23.968-42.329-21.857-42.683-20.265-42.946-18.669-42.904-17.127-42.317-15.988-41.889-15.157-41.132-14.788-39.979-13.804-36.946-13.926-33.939-15.14-30.997-16.003-28.898-17.395-27.142-18.856-25.437-21.274-22.62-24.152-20.267-26.835-17.723-28.564-16.087-30.333-14.491-31.984-12.786-34.063-10.651-35.935-8.345-37.47-5.78-39.651-2.13-40.769 1.802-40.722 6.077-40.69 9.021-40.409 11.929-39.474 14.724-37.833 19.646-34.781 23.329-29.877 25.342-25.669 27.068-21.313 27.396-16.833 27.024-14.954 26.871-13.112 26.632-11.302 26.127-6.576 24.808-3.27 21.939-1.584 17.278-.516 14.327-.023 11.271 .035 8.148 .082 5.812 .068 3.479 .071 1.144 .072 .786 .026 .424 0 0" fill="#1f3f4b"/>
<path transform="matrix(1,0,0,-1,412.4053,49.822298)" d="M0 0H37.788C38.043-1.458 37.885-2.867 37.914-4.264 37.939-5.682 37.919-7.101 37.919-8.52V-12.864C37.263-12.923 36.735-13.01 36.2-13.013 33.361-13.023 30.522-13.018 27.687-13.018H26.246C26.184-13.385 26.101-13.687 26.094-13.985 26.065-14.536 26.085-15.084 26.085-15.634V-81.138-82.731C24.843-83.108 13.719-83.179 11.795-82.821V-13.018H.165C-.355-11.495-.11-10.072-.145-8.675-.186-7.211-.18-5.744-.148-4.281-.123-2.879-.293-1.463 0 0" fill="#1f3f4b"/>
<path transform="matrix(1,0,0,-1,305.3389,49.807603)" d="M0 0V-82.83C-1.1-83.145-12.55-83.143-14.058-82.794-14.139-78.218-14.081-73.617-14.094-69.009-14.102-64.435-14.094-59.856-14.094-55.282V-41.414-27.55-13.822 0Z" fill="#1f3f4b"/>
<path transform="matrix(1,0,0,-1,483.915,114.7783)" d="M0 0C-.165-2.354-1.837-4.459-4.622-4.86-5.735-5.016-6.913-4.995-8.03-4.829-10.777-4.414-12.48-2.492-12.712 .277-12.756 .821-12.753 1.373-12.753 1.923-12.756 9.103-12.755 16.284-12.756 23.465-12.757 30.692-12.767 37.918-12.743 45.144-12.741 46.003-12.658 46.876-12.486 47.72-11.996 50.116-10.373 51.414-8.075 51.819-6.687 52.061-5.256 52.063-3.861 51.646-1.672 50.987-.378 49.557-.039 47.302 .096 46.404 .163 45.485 .164 44.577 .182 30.628 .182 16.678 .167 2.726 .166 1.815 .068 .908 0 0M14.408 41.812C14.406 43.73 14.37 45.653 14.26 47.57 14.099 50.366 13.553 53.078 12.373 55.653 10.953 58.762 8.799 61.131 5.742 62.688 2.532 64.321-.929 64.855-4.458 64.979-6.371 65.047-8.291 64.883-10.205 64.799-12.692 64.692-15.086 64.138-17.369 63.15-20.967 61.594-23.562 59.03-25.131 55.419-26.35 52.606-26.918 49.655-26.939 46.619-26.987 38.888-26.951 31.155-26.951 23.424H-26.971C-26.971 15.969-26.985 8.511-26.963 1.053-26.954-1.698-26.545-4.395-25.669-7.02-24.21-11.404-21.398-14.509-17.142-16.288-14.49-17.387-11.707-17.86-8.86-17.954-7.263-18.008-5.66-17.993-4.064-17.967-1.958-17.939 .123-17.652 2.162-17.096 9.142-15.176 12.738-10.435 13.875-3.72 14.297-1.21 14.386 1.379 14.396 3.931 14.445 16.558 14.421 29.185 14.408 41.812" fill="#1f3f4b"/>
<path transform="matrix(1,0,0,-1,533.3271,139.0674)" d="M0 0C2.557 .007 4.759-.361 6.725-1.62 7.547-2.152 8.287-2.841 9.01-3.529 9.504-4 9.461-4.144 8.973-4.635 8.385-5.214 7.787-5.788 7.182-6.35 6.789-6.714 6.723-6.705 6.346-6.31 5.539-5.442 4.639-4.707 3.521-4.305 3.109-4.156 2.707-3.947 2.273-3.888 .691-3.669-.904-3.548-2.447-4.089-3.663-4.52-4.723-5.176-5.301-6.458-6.297-8.674-5.712-10.748-3.504-11.65-2.304-12.136-1.037-12.399 .244-12.574 2.393-12.869 4.539-13.23 6.512-14.273 7.658-14.87 8.643-15.689 9.213-16.893 9.577-17.672 9.908-18.521 10.021-19.371 10.244-21.014 10.252-22.677 9.678-24.273 8.869-26.481 7.314-27.946 5.27-28.857 3.336-29.72 1.275-29.981-.805-29.841-3.18-29.68-5.506-29.227-7.602-27.926-8.686-27.255-9.671-26.46-10.476-25.438-10.658-25.206-10.671-25.028-10.472-24.803-9.824-24.074-9.186-23.348-8.555-22.612-8.276-22.293-8.075-22.362-7.805-22.644-7.316-23.138-6.831-23.634-6.285-24.048-3.588-26.069-.592-26.564 2.604-25.772 3.531-25.546 4.354-25.016 5.018-24.275 6.877-22.219 6.342-18.691 3.613-17.671 2.461-17.229 1.295-16.917 .08-16.71-1.857-16.384-3.795-16.087-5.652-15.34-8.323-14.259-9.669-12.224-9.865-9.324-9.976-7.685-9.742-6.089-8.945-4.632-7.893-2.705-6.295-1.433-4.321-.714-2.842-.171-1.299 .084 0 0" fill="#1f3f4b"/>
<path transform="matrix(1,0,0,-1,508.4229,153.0908)" d="M0 0C-1.971-.003-3.939-.01-5.913 .002-6.649 .007-6.713 .083-6.722 .863-6.734 2.202-6.725 3.545-6.725 4.885-6.725 6.087-6.726 7.283-6.725 8.481-6.725 8.698-6.738 8.909-6.722 9.118-6.676 9.801-6.584 9.904-5.92 9.909-4.293 9.921-2.662 9.889-1.034 9.922-.105 9.941 .787 9.817 1.682 9.582 3.541 9.092 4.57 7.678 4.806 5.734 4.937 4.677 4.804 3.61 4.424 2.62 4.117 1.813 3.575 1.176 2.826 .766 1.947 .271 1.004 .002 0 0M9.406-14.581C8.696-13.263 7.969-11.95 7.248-10.632 6.043-8.429 4.833-6.23 3.637-4.019 3.303-3.4 3.38-3.239 3.996-3.025 4.122-2.971 4.275-2.978 4.392-2.925 6.847-1.867 8.325 .023 8.754 2.748 8.979 4.169 9.022 5.627 8.758 7.057 8.406 8.982 7.653 10.667 6.037 11.835 4.326 13.075 2.369 13.497 .361 13.555-2.972 13.647-6.305 13.617-9.638 13.632-9.875 13.632-10.111 13.627-10.347 13.632-10.678 13.645-10.864 13.513-10.856 13.147-10.853 12.938-10.855 12.721-10.855 12.51V-.834H-10.857C-10.857-5.352-10.859-9.879-10.855-14.396-10.854-15.26-10.727-15.386-9.939-15.373-9.194-15.347-8.451-15.316-7.702-15.298-6.739-15.275-6.738-15.281-6.726-14.306-6.723-14.064-6.725-13.813-6.725-13.563-6.726-10.635-6.729-7.707-6.723-4.781-6.72-3.788-6.682-3.754-5.752-3.749-4.463-3.741-3.168-3.807-1.883-3.719-1.211-3.677-.902-3.934-.619-4.498 .187-6.086 1.034-7.656 1.86-9.233 2.756-10.934 3.662-12.628 4.533-14.342 4.885-15.033 5.309-15.393 6.129-15.318 7.071-15.229 8.029-15.304 8.982-15.316 9.611-15.316 9.718-15.156 9.406-14.581" fill="#1f3f4b"/>
<path transform="matrix(1,0,0,-1,290.8818,154.0781)" d="M0 0V13.651C0 13.908 .011 14.161 0 14.423-.013 14.879 .171 15.086 .631 15.075 1.514 15.063 2.401 15.03 3.282 15.087 3.875 15.124 4.188 14.853 4.433 14.345 5.148 12.839 5.875 11.329 6.599 9.83 8.74 5.382 10.889 .937 13.036-3.511 13.112-3.672 13.216-3.818 13.311-3.975 13.449-4.23 13.563-4.134 13.671-3.947 13.769-3.794 13.873-3.643 13.947-3.481 16.826 2.436 19.696 8.349 22.561 14.271 22.821 14.79 23.118 15.14 23.774 15.088 24.615 15.02 25.471 15.087 26.318 15.067 26.918 15.058 26.975 14.975 27.007 14.364 27.021 14.146 27.007 13.928 27.007 13.707V-13.819C27.007-15.095 27.009-15.097 25.808-15.099 24.992-15.101 24.184-15.089 23.366-15.098 22.974-15.103 22.778-14.911 22.766-14.51 22.757-14.218 22.757-13.928 22.757-13.632 22.757-7.646 22.761-1.668 22.751 4.311 22.749 4.686 22.656 5.055 22.604 5.43 22.406 5.128 22.18 4.845 22.025 4.527 19.925 .182 17.835-4.162 15.742-8.505 15.008-10.032 15.008-10.033 13.376-10.032 13.305-10.032 13.229-10.024 13.16-10.034 12.341-10.189 11.874-9.81 11.521-9.031 10.704-7.203 9.801-5.42 8.925-3.619 7.519-.706 6.107 2.209 4.696 5.115 4.631 5.248 4.567 5.381 4.491 5.495 4.441 5.581 4.367 5.646 4.304 5.719 4.245 5.635 4.141 5.552 4.132 5.47 4.102 5.179 4.104 4.882 4.104 4.589 4.102-1.534 4.102-7.663 4.102-13.793 4.104-15.221 4.165-15.098 2.839-15.1 2.204-15.101 1.567-15.108 .93-15.099 .019-15.086 .019-15.081 .002-14.094-.001-13.876 0-13.651 0-13.428Z" fill="#1f3f4b"/>
<path transform="matrix(1,0,0,-1,360.9727,151.9814)" d="M0 0C.954 0 1.913 .028 2.864-.002 3.891-.044 4.819 .307 5.701 .768 6.357 1.115 6.851 1.676 7.191 2.409 7.62 3.322 7.587 4.261 7.552 5.21 7.498 6.56 6.884 7.56 5.747 8.237 4.896 8.742 3.967 8.992 3.02 9.013 .897 9.069-1.217 9.041-3.342 9.024-4 9.021-4.079 8.948-4.083 8.264-4.091 5.726-4.091 3.197-4.085 .668-4.081 .028-4.054 .011-3.39 0-2.26-.007-1.13 0 0 0M-4.087-8.616H-4.089C-4.089-9.907-4.091-11.187-4.087-12.466-4.078-13.361-4.061-13.374-3.178-13.38-1.232-13.393 .712-13.425 2.65-13.368 3.595-13.345 4.537-13.174 5.475-13 6.139-12.876 6.731-12.548 7.237-12.06 8.723-10.604 8.656-8.808 8.27-6.962 8.079-6.013 7.469-5.332 6.693-4.842 5.833-4.305 4.89-3.976 3.891-3.965 1.46-3.931-.983-3.944-3.419-3.954-4.032-3.957-4.072-3.998-4.081-4.657-4.091-5.979-4.087-7.302-4.087-8.616M-8.393-2.103C-8.394 2.404-8.394 6.91-8.394 11.426-8.394 11.643-8.394 11.863-8.39 12.083-8.357 12.931-8.344 12.971-7.551 12.971-4.553 12.979-1.547 13.078 1.449 12.94 3.19 12.857 4.972 12.928 6.684 12.365 8.456 11.781 10.03 10.967 10.93 9.176 11.761 7.538 11.946 5.769 11.747 3.954 11.605 2.75 11.367 1.581 10.636 .566 10.043-.234 9.381-.913 8.519-1.393 8.352-1.482 8.242-1.692 8.101-1.842 8.257-1.926 8.397-2.005 8.543-2.096 9.272-2.54 10.049-2.907 10.703-3.445 12.132-4.604 12.666-6.289 12.813-8.074 12.939-9.564 12.813-11.045 12.323-12.499 11.566-14.727 9.971-15.891 7.937-16.566 6.413-17.074 4.831-17.186 3.242-17.192-.183-17.205-3.608-17.196-7.034-17.196-7.279-17.196-7.53-17.182-7.772-17.194-8.234-17.219-8.396-16.952-8.393-16.514-8.388-16.257-8.393-16-8.393-15.746Z" fill="#1f3f4b"/>
<path transform="matrix(1,0,0,-1,447.833,154.10739)" d="M0 0V0C0-3.416-.006-6.823 .004-10.235 .006-11.189 .058-11.245 .942-11.254 2.252-11.268 3.563-11.231 4.868-11.269 5.972-11.3 7.05-11.157 8.118-10.894 9.744-10.486 11.011-9.601 11.739-7.968 12.156-7.024 12.429-6.038 12.446-5.011 12.49-1.93 12.529 1.154 12.492 4.23 12.482 5.176 12.313 6.133 12.08 7.047 11.786 8.187 11.207 9.182 10.242 9.904 9.076 10.786 7.74 11.091 6.359 11.143 4.559 11.211 2.753 11.17 .953 11.156 .072 11.15 .02 11.075 0 10.126-.006 9.942 0 9.764 0 9.579ZM-4.263-.015C-4.263 4.612-4.259 9.23-4.265 13.851-4.269 15.286-4.193 15.097-3.04 15.097-.496 15.102 2.053 15.177 4.593 15.079 6.448 15.004 8.325 15.008 10.15 14.472 13.201 13.564 15.231 11.585 16.164 8.413 16.634 6.827 16.741 5.185 16.763 3.541 16.783 1.629 16.794-.276 16.757-2.181 16.724-3.757 16.741-5.351 16.504-6.89 15.97-10.441 14.223-13.046 10.801-14.245 9.277-14.787 7.718-15.037 6.131-15.056 3.021-15.096-.091-15.071-3.2-15.073-3.41-15.073-3.642-15.115-3.83-15.041-3.994-14.981-4.191-14.81-4.229-14.642-4.291-14.326-4.263-13.987-4.263-13.659Z" fill="#1f3f4b"/>
<path transform="matrix(1,0,0,-1,254.2363,154.0771)" d="M0 0V-13.426C0-13.65 .002-13.876-.003-14.09-.016-15.091-.017-15.096-1.024-15.101-1.874-15.104-2.724-15.089-3.57-15.101-3.971-15.106-4.148-14.9-4.16-14.504-4.171-14.033-4.196-13.554-4.196-13.084-4.196-9.56-4.193-6.035-4.188-2.512-4.187-1.757-4.226-1.687-4.953-1.686-8.732-1.675-12.515-1.675-16.294-1.686-17.096-1.687-17.152-1.757-17.154-2.676-17.16-6.385-17.158-10.086-17.154-13.795-17.152-15.15-17.097-15.108-18.442-15.102-19.253-15.098-20.065-15.09-20.879-15.104-21.281-15.111-21.464-14.925-21.455-14.513-21.449-14.293-21.456-14.074-21.456-13.854-21.456-4.645-21.456 4.566-21.456 13.773-21.456 15.236-21.507 15.066-20.19 15.066-19.377 15.071-18.563 15.066-17.752 15.066-17.365 15.066-17.159 14.896-17.158 14.482-17.158 14.218-17.154 13.97-17.154 13.707-17.154 10.445-17.154 7.182-17.154 3.908-17.154 3.658-17.163 3.398-17.153 3.144-17.118 2.209-17.057 2.137-16.185 2.135-12.51 2.13-8.836 2.133-5.159 2.135-5.018 2.135-4.877 2.142-4.735 2.142-4.395 2.143-4.21 2.311-4.205 2.669-4.202 2.963-4.198 3.258-4.198 3.554-4.198 6.925-4.198 10.305-4.196 13.678-4.196 15.066-4.19 15.066-2.857 15.066-2.114 15.066-1.37 15.06-.629 15.073-.172 15.087 .015 14.879-.002 14.422-.008 14.127 0 13.832 0 13.537Z" fill="#1f3f4b"/>
<path transform="matrix(1,0,0,-1,326.3564,154.0605)" d="M0 0C-.001 4.584-.001 9.168 0 13.753 0 15.05 .002 15.05 1.206 15.05H18.375 19.011C19.362 15.049 19.524 14.836 19.528 14.495 19.537 13.577 19.53 12.669 19.537 11.754 19.537 11.281 19.311 11.092 18.873 11.109 18.521 11.124 18.174 11.113 17.818 11.113H5.735C5.526 11.113 5.315 11.121 5.098 11.11 4.419 11.085 4.38 11.069 4.375 10.349 4.359 8.145 4.367 5.946 4.369 3.747 4.369 2.079 4.369 2.079 6.007 2.079H15.758C16.008 2.079 16.252 2.078 16.499 2.076 16.794 2.069 16.963 1.922 16.963 1.607 16.965 .655 16.961-.3 16.967-1.258 16.969-1.614 16.807-1.803 16.466-1.817 16.183-1.829 15.9-1.829 15.616-1.829H5.655C5.439-1.829 5.229-1.82 5.019-1.829 4.409-1.862 4.405-1.871 4.369-2.55 4.365-2.622 4.365-2.693 4.365-2.769 4.367-5.262 4.367-7.758 4.369-10.252 4.369-10.471 4.334-10.714 4.409-10.9 4.471-11.063 4.656-11.245 4.814-11.288 5.089-11.347 5.379-11.305 5.662-11.305H18.064C18.343-11.305 18.631-11.315 18.909-11.306 19.354-11.292 19.543-11.509 19.537-11.97 19.526-12.817 19.537-13.661 19.537-14.504 19.537-14.9 19.358-15.12 18.958-15.115 18.744-15.112 18.531-15.118 18.322-15.118 12.631-15.12 6.949-15.12 1.258-15.121 1.12-15.121 .977-15.125 .837-15.117 .109-15.083 .041-15.019 .002-14.301-.009-14.048 0-13.786 0-13.533Z" fill="#1f3f4b"/>
<path transform="matrix(1,0,0,-1,471.749,154.0215)" d="M0 0C0 4.292 0 8.583-.008 12.874-.008 13.387-.059 13.899-.082 14.411-.099 14.762 .062 14.972 .403 15.006 .618 15.018 .825 15.011 1.036 15.011H18.317 18.953C19.258 15.011 19.421 14.853 19.428 14.548 19.448 13.555 19.475 12.569 19.48 11.576 19.484 11.215 19.252 11.068 18.918 11.074 18.672 11.079 18.421 11.074 18.177 11.074 13.934 11.074 9.693 11.075 5.451 11.073 4.246 11.073 4.243 11.07 4.243 9.8 4.238 7.562 4.238 5.324 4.246 3.084 4.246 2.054 4.253 2.04 5.226 2.04 8.657 2.039 12.084 2.04 15.514 2.04 16.998 2.04 16.848 2.152 16.854 .593 16.856 .001 16.84-.58 16.856-1.169 16.872-1.624 16.696-1.868 16.249-1.868H15.4 5.75 5.219C4.255-1.877 4.246-1.878 4.246-2.921 4.238-5.341 4.243-7.761 4.243-10.187 4.243-10.365 4.246-10.55 4.246-10.736 4.248-11.124 4.395-11.366 4.812-11.345 5.055-11.334 5.306-11.344 5.554-11.344H18.274C19.445-11.344 19.453-11.346 19.485-12.602 19.498-13.258 19.487-13.923 19.471-14.58 19.461-14.976 19.258-15.181 18.859-15.155 18.646-15.141 18.436-15.156 18.225-15.156H1.259C1.19-15.156 1.122-15.157 1.051-15.156-.057-15.146-.032-15.128-.022-13.984 .002-10.974-.008-7.965 0-4.954Z" fill="#1f3f4b"/>
<path transform="matrix(1,0,0,-1,379.3379,149.7832)" d="M0 0V9.355C0 9.576-.012 9.797 .002 10.016 .03 10.744 .034 10.768 .722 10.772 1.675 10.785 2.634 10.789 3.585 10.772 4.19 10.764 4.261 10.68 4.292 10.091 4.313 9.797 4.3 9.501 4.3 9.206 4.3 3.229 4.28-2.756 4.32-8.733 4.328-9.82 4.454-10.934 4.731-11.983 5.358-14.383 6.797-15.658 9.382-15.892 10.331-15.972 11.303-15.974 12.237-15.849 14.598-15.509 16.06-14.036 16.569-11.647 16.799-10.581 16.936-9.472 16.942-8.38 16.976-2.547 16.962 3.287 16.962 9.122 16.962 9.374 16.953 9.637 16.966 9.889 16.981 10.76 16.983 10.769 17.781 10.772 18.595 10.784 19.405 10.792 20.219 10.772 20.878 10.76 20.955 10.664 20.991 10.019 21.003 9.834 20.993 9.648 20.993 9.469 20.993 3.301 21.031-2.862 20.979-9.024 20.957-11.34 20.597-13.606 19.434-15.673 18.447-17.41 16.99-18.511 15.208-19.124 12.054-20.202 8.864-20.153 5.736-19.095 3.094-18.205 1.456-16.199 .671-13.47 .139-11.593-.024-9.662-.01-7.705 .017-5.144 0-2.57 0 0" fill="#1f3f4b"/>
<path transform="matrix(1,0,0,-1,419.8135,154.0781)" d="M0 0V13.536C0 13.789-.006 14.048 .002 14.303 .034 15.026 .053 15.061 .724 15.067 1.676 15.081 2.629 15.084 3.58 15.067 4.235 15.059 4.272 14.999 4.303 14.285 4.311 14.032 4.305 13.771 4.305 13.518V-9.589C4.305-9.741 4.303-9.885 4.305-10.028 4.307-11.283 4.307-11.286 5.545-11.287 9.502-11.288 13.457-11.286 17.412-11.288 18.633-11.288 18.635-11.294 18.637-12.573 18.637-13.196 18.633-13.819 18.637-14.442 18.639-14.898 18.412-15.106 17.98-15.098 17.802-15.094 17.624-15.1 17.447-15.1H1.129C.959-15.1 .778-15.089 .602-15.101 .208-15.122 .002-14.947 .004-14.526 .004-14.232 0-13.938 0-13.649Z" fill="#1f3f4b"/>
<path transform="matrix(1,0,0,-1,412.083,154.1396)" d="M0 0V-14.19C0-14.947-.046-15.019-.755-15.033-1.67-15.053-2.584-15.053-3.506-15.032-4.117-15.02-4.17-14.956-4.214-14.354-4.24-13.876-4.257-13.404-4.257-12.925-4.259-4.058-4.259 4.817-4.259 13.687-4.259 13.87-4.269 14.053-4.257 14.233-4.216 15.048-4.155 15.124-3.4 15.129-2.52 15.141-1.632 15.146-.755 15.129-.053 15.12 .032 14.993 .03 14.288 .029 9.521 .03 4.763 .03 0Z" fill="#1f3f4b"/>
<path transform="matrix(1,0,0,-1,60.3394,135.874)" d="M0 0C0 0 11.336 23.981 20.491 26.594 20.491 26.594 32.917 33.354 41.201 10.684 41.201 10.684 43.162 3.49 45.777-6.977 45.777-6.977 69.934 54.046 125.349 71.017 110.554 96.483 82.983 113.61 51.409 113.61 17.818 113.61-11.24 94.224-25.204 66.037-17.91 60.951-2.944 45.137 0 0"/>
<path transform="matrix(1,0,0,-1,50.313,126.4971)" d="M0 0C-1.022 8.103-3.688 16.555-7.333 23.847-9.013 27.207-10.716 30.643-13.134 33.546-14.241 34.875-15.462 36.128-16.755 37.276-17.118 37.599-21.229 40.497-21.251 40.415-23.054 33.505-24.017 26.256-24.017 18.781-24.017-4.195-14.944-25.056-.188-40.414 .653-33.521 2.154-17.082 0 0"/>
<path transform="matrix(1,0,0,-1,193.2983,82.1221)" d="M0 0C-5.842-.493-20.873-3.344-39.44-18.872-43.327-22.122-46.775-25.817-50.24-29.516-58.495-38.327-66.452-47.47-72.644-57.884-74.578-61.137-76.347-64.485-78.008-67.886-80.188-72.349-82.267-76.402-83.615-81.201-84.273-83.544-84.985-85.914-85.505-88.291-85.939-90.274-86.167-92.342-88.111-93.509-91.391-95.478-94.222-90.16-94.375-87.537-94.375-87.537-94.592-83.836-95.028-78.167-95.028-78.167-96.336-58.328-100.915-50.488-100.915-50.488-102.221-45.684-107.017-45.467-107.017-45.467-112.249-44.375-118.353-52.443-118.353-52.443-125.871-61.437-133.957-93.086-119.485-104.344-101.301-111.043-81.55-111.043-34.356-111.043 3.901-72.789 3.901-25.594 3.901-16.678 2.534-8.078 0 0"/>
<path transform="matrix(1,0,0,-1,279.583,157.7402)" d="M0 0C-.035-1.196-.209-2.409-.505-3.568-1.217-6.355-3.337-7.82-5.938-7.951-7.023-8.007-8.106-8.032-9.195-7.744-11.691-7.089-12.938-5.325-13.494-2.852-13.804-1.477-13.741-.082-13.747 1.307-13.751 2.076-13.748 2.847-13.748 3.614-13.748 5.046-13.757 6.479-13.745 7.91-13.739 9.206-13.509 10.46-13.023 11.649-12.281 13.483-10.937 14.564-9.097 14.991-7.273 15.428-5.47 15.408-3.702 14.668-2.113 14.007-1.128 12.769-.583 11.146-.165 9.9 .024 8.591 .024 7.264 .024 4.844 .079 2.417 0 0M4.185 7.88C4.19 9.471 3.975 11.025 3.464 12.515 2.558 15.169 .881 17.11-1.672 18.157-4.919 19.478-8.227 19.497-11.521 18.416-13.681 17.71-15.359 16.288-16.488 14.21-17.456 12.425-17.932 10.493-17.948 8.443-17.96 6.867-17.951 5.291-17.951 3.716-17.952 2.468-17.939 1.22-17.956-.027-17.971-1.43-17.904-2.802-17.564-4.168-16.712-7.614-14.768-10.077-11.483-11.182-8.454-12.204-5.367-12.188-2.32-11.179-.671-10.638 .722-9.682 1.837-8.288 3.493-6.201 4.103-3.757 4.165-1.15 4.237 1.86 4.168 4.871 4.185 7.88" fill="#1f3f4b"/>
</g>
</g>
</svg>
